{"title":"Never.Let.Me.Go.2010.BDRip.XVID.AC3.HQ.Hive-CM8","uid":6072288,"size":2006348256,"categoryP":"video","categoryS":"movies","magnet":"?xt=urn:btih:2c2c745e819f0076dffa3529cfe9b108c7088a54&amp;dn=Never.Let.Me.Go.2010.BDRip.XVID.AC3.HQ.Hive-CM8&amp;tr=udp%3A%2F%2Ftracker.openbittorrent.com%3A80&amp;tr=udp%3A%2F%2Fopen.demonii.com%3A1337&amp;tr=udp%3A%2F%2Ftracker.coppersurfer.tk%3A6969&amp;tr=udp%3A%2F%2Fexodus.desync.com%3A6969","seeders":0,"leechers":1,"uploader":".BONE.","files":138,"time":1293676330,"description":"Never Let Me Go 2010 BDRip XVID AC3 HQ Hive-CM8\n\n\n\nThx Hive\n\nCM8 Doing It Right The First Time :D\n\nWhy download a touched up rip of a rip BRrip\nGet the real deal BDRip\nEnjoy\n\nSource Bluray from China\n\nVideo: 720x304 @bitrate 2100 2pass\nAudio: DTS to AC3 5.1 @448\nSample: yes included\n\n &lt;a href=&quot;\nhttp://www.imdb.com/title/tt1334260/&quot; rel=&quot;nofollow&quot; target=&quot;_NEW&quot;&gt;\nhttp://www.imdb.com/title/tt1334260/&lt;/a&gt;\n\n\nGeneral\nComplete name : Never.Let.Me.Go.2010.BDRip.XVID.AC3.HQ.Hive-CM8.avi\nFormat : AVI\nFormat/Info : Audio Video Interleave\nFile size : 1.86 GiB\nDuration : 1h 43mn\nOverall bit rate : 2 569 Kbps\nWriting application : Nandub v1.0rc2\nWriting library : Nandub build 1853/release\n\nVideo\nID : 0\nFormat : MPEG-4 Visual\nFormat profile : Advanced Simple@L5\nFormat settings, BVOP : Yes\nFormat settings, QPel : Yes\nFormat settings, GMC : No warppoints\nFormat settings, Matrix : Default (H.263)\nMuxing mode : Packed bitstream\nCodec ID : XVID\nCodec ID/Hint : XviD\nDuration : 1h 43mn\nBit rate : 2 112 Kbps\nWidth : 720 pixels\nHeight : 304 pixels\nDisplay aspect ratio : 2.35:1\nFrame rate : 23.976 fps\nColor space : YUV\nChroma subsampling : 4:2:0\nBit depth : 8 bits\nScan type : Progressive\nBits/(Pixel*Frame) : 0.402\nStream size : 1.53 GiB (82%)\nWriting library : XviD 1.2.1 (UTC 2008-12-04)\n\nAudio\nID : 1\nFormat : AC-3\nFormat/Info : Audio Coding 3\nMode extension : CM (complete main)\nCodec ID : 2000\nDuration : 1h 43mn\nBit rate mode : Constant\nBit rate : 448 Kbps\nChannel(s) : 6 channels\nChannel positions : Front: L C R, Side: L R, LFE\nSampling rate : 48.0 KHz\nBit depth : 16 bits\nStream size : 333 MiB (17%)\nAlignment : Split accross interleaves\nInterleave, duration : 42 ms (1.00 video frame)\nInterleave, preload duration : 500 ms\n\n\n\nCarey Mulligan as Kathy\nIsobel Meikle-Small as Young Kathy\nKeira Knightley as Ruth\nElla Purnell as Young Ruth\nAndrew Garfield as Tommy\nCharlie Rowe as Young Tommy\nSally Hawkins as Miss Lucy\nCharlotte Rampling as Miss Emily\nNathalie Richard as Madame\nAndrea Riseborough as Chrissie\n\n\n\nAs children, Ruth, Kathy and Tommy, spend their childhood at a seemingly\nidyllic English boarding school. As they grow into young adults, they find\nthat they have to come to terms with the strength of the love they feel for\neach other, while preparing themselves for the haunting reality that awaits them.","torrent":{"xt":"urn:btih:2c2c745e819f0076dffa3529cfe9b108c7088a54","amp;dn":"Never.Let.Me.Go.2010.BDRip.XVID.AC3.HQ.Hive-CM8","amp;tr":["udp%3A%2F%2Ftracker.openbittorrent.com%3A80","udp%3A%2F%2Fopen.demonii.com%3A1337","udp%3A%2F%2Ftracker.coppersurfer.tk%3A6969","udp%3A%2F%2Fexodus.desync.com%3A6969"],"infoHash":"2c2c745e819f0076dffa3529cfe9b108c7088a54","infoHashBuffer":{"type":"Buffer","data":[44,44,116,94,129,159,0,118,223,250,53,41,207,233,177,8,199,8,138,84]},"announce":[],"urlList":[]}}